<svg xmlns="http://www.w3.org/2000/svg" viewBox="0 0 512 512">
  <defs>
    <linearGradient id="mane" x1="0%" y1="0%" x2="100%" y2="100%">
      <stop offset="0%" stop-color="#00C2B8"/>
      <stop offset="55%" stop-color="#2D7BFF"/>
      <stop offset="100%" stop-color="#22E6A2"/>
    </linearGradient>
  </defs>
  <path d="M 302 56 A 200 200 0 1 0 302 456" fill="none" stroke="url(#mane)" stroke-width="34" stroke-linecap="round"/>
  <g fill="none" stroke="#0A1021" stroke-width="30" stroke-linecap="round" stroke-linejoin="round">
    <path d="M 270 130 L 292 84 L 314 134"/>
    <path d="M 314 134 C 352 156, 382 196, 395 240 C 404 268, 405 292, 396 307 L 366 312 C 350 314, 339 306, 334 292 C 328 338, 308 378, 274 408"/>
    <path d="M 270 130 C 255 164, 250 202, 257 240 C 263 276, 257 316, 238 352"/>
  </g>
  <circle cx="322" cy="198" r="15" fill="#0A1021"/>
</svg>
